<svg width="30" height="30" viewBox="0 0 30 30" fill="none" xmlns="http://www.w3.org/2000/svg">
<path fill-rule="evenodd" clip-rule="evenodd" d="M11.0412 24.0462C11.0378 24.5687 10.612 24.9898 10.0896 24.9875C9.56711 24.9852 9.1451 24.5604 9.14624 24.0379C9.14738 23.5155 9.57125 23.0925 10.0937 23.0925C10.6186 23.0946 11.0426 23.5214 11.0412 24.0462V24.0462Z" stroke="white" stroke-width="1.5" stroke-linecap="round" stroke-linejoin="round"/>
<path fill-rule="evenodd" clip-rule="evenodd" d="M16.7263 24.0462C16.7228 24.5687 16.2971 24.9898 15.7746 24.9875C15.2522 24.9852 14.8302 24.5604 14.8313 24.0379C14.8324 23.5155 15.2563 23.0925 15.7788 23.0925C16.3037 23.0946 16.7277 23.5214 16.7263 24.0462Z" stroke="white" stroke-width="1.5" stroke-linecap="round" stroke-linejoin="round"/>
<path fill-rule="evenodd" clip-rule="evenodd" d="M18.4139 17.8287C19.916 17.9587 21.3222 17.0766 21.8589 15.6675L23.0201 12.69L23.6589 10.7362C23.7377 10.5279 23.7647 10.3036 23.7376 10.0825C23.5664 9.07624 22.5651 9.18249 21.3564 9.18249H9.04761L9.59011 17.8287H18.4139Z" stroke="white" stroke-width="1.5" stroke-linecap="round" stroke-linejoin="round"/>
<path d="M8.3405 9.43404C8.47873 9.82451 8.90733 10.029 9.29779 9.89075C9.68826 9.75252 9.89274 9.32392 9.7545 8.93346L9.0475 9.18375L8.3405 9.43404ZM8.2275 6.8675L7.47756 6.85822C7.47646 6.9466 7.491 7.03448 7.5205 7.11779L8.2275 6.8675ZM8.05415 6.43395L8.59096 5.91019L8.59096 5.91018L8.05415 6.43395ZM7.625 6.25L7.63416 5.5H7.625V6.25ZM6.25 5.5C5.83579 5.5 5.5 5.83579 5.5 6.25C5.5 6.66421 5.83579 7 6.25 7V6.25V5.5ZM9.6416 18.577C10.0548 18.5485 10.3667 18.1904 10.3382 17.7771C10.3097 17.3639 9.95163 17.052 9.5384 17.0805L9.59 17.8287L9.6416 18.577ZM9.59 20.9862L9.5384 21.7345C9.55557 21.7357 9.57278 21.7362 9.59 21.7362V20.9862ZM18.4862 21.7362C18.9005 21.7362 19.2362 21.4005 19.2362 20.9862C19.2362 20.572 18.9005 20.2362 18.4862 20.2362V20.9862V21.7362ZM9.0475 9.18375L9.7545 8.93346L8.9345 6.61721L8.2275 6.8675L7.5205 7.11779L8.3405 9.43404L9.0475 9.18375ZM8.2275 6.8675L8.97744 6.87678C8.9819 6.51608 8.84288 6.16838 8.59096 5.91019L8.05415 6.43395L7.51734 6.95772C7.49141 6.93115 7.4771 6.89535 7.47756 6.85822L8.2275 6.8675ZM8.05415 6.43395L8.59096 5.91018C8.33904 5.65199 7.99487 5.50446 7.63416 5.50006L7.625 6.25L7.61584 6.99994C7.5787 6.99949 7.54328 6.9843 7.51734 6.95773L8.05415 6.43395ZM7.625 6.25V5.5H6.25V6.25V7H7.625V6.25ZM9.59 17.8287L9.5384 17.0805C8.31538 17.1649 7.36638 18.1816 7.36638 19.4075H8.11638H8.86638C8.86638 18.97 9.20509 18.6071 9.6416 18.577L9.59 17.8287ZM8.11638 19.4075H7.36638C7.36638 20.6334 8.31538 21.6501 9.5384 21.7345L9.59 20.9862L9.6416 20.238C9.20509 20.2079 8.86638 19.845 8.86638 19.4075H8.11638ZM9.59 20.9862V21.7362H18.4862V20.9862V20.2362H9.59V20.9862Z" fill="white"/>
</svg>
