<svg width="17" height="18" viewBox="0 0 17 18" fill="none" xmlns="http://www.w3.org/2000/svg">
<path d="M0 16.3125C0 17.2441 0.815848 18 1.82143 18H15.1786C16.1842 18 17 17.2441 17 16.3125V6.75H0V16.3125ZM12.1429 9.42188C12.1429 9.18984 12.3478 9 12.5982 9H14.1161C14.3665 9 14.5714 9.18984 14.5714 9.42188V10.8281C14.5714 11.0602 14.3665 11.25 14.1161 11.25H12.5982C12.3478 11.25 12.1429 11.0602 12.1429 10.8281V9.42188ZM12.1429 13.9219C12.1429 13.6898 12.3478 13.5 12.5982 13.5H14.1161C14.3665 13.5 14.5714 13.6898 14.5714 13.9219V15.3281C14.5714 15.5602 14.3665 15.75 14.1161 15.75H12.5982C12.3478 15.75 12.1429 15.5602 12.1429 15.3281V13.9219ZM7.28571 9.42188C7.28571 9.18984 7.49062 9 7.74107 9H9.25893C9.50938 9 9.71429 9.18984 9.71429 9.42188V10.8281C9.71429 11.0602 9.50938 11.25 9.25893 11.25H7.74107C7.49062 11.25 7.28571 11.0602 7.28571 10.8281V9.42188ZM7.28571 13.9219C7.28571 13.6898 7.49062 13.5 7.74107 13.5H9.25893C9.50938 13.5 9.71429 13.6898 9.71429 13.9219V15.3281C9.71429 15.5602 9.50938 15.75 9.25893 15.75H7.74107C7.49062 15.75 7.28571 15.5602 7.28571 15.3281V13.9219ZM2.42857 9.42188C2.42857 9.18984 2.63348 9 2.88393 9H4.40179C4.65223 9 4.85714 9.18984 4.85714 9.42188V10.8281C4.85714 11.0602 4.65223 11.25 4.40179 11.25H2.88393C2.63348 11.25 2.42857 11.0602 2.42857 10.8281V9.42188ZM2.42857 13.9219C2.42857 13.6898 2.63348 13.5 2.88393 13.5H4.40179C4.65223 13.5 4.85714 13.6898 4.85714 13.9219V15.3281C4.85714 15.5602 4.65223 15.75 4.40179 15.75H2.88393C2.63348 15.75 2.42857 15.5602 2.42857 15.3281V13.9219ZM15.1786 2.25H13.3571V0.5625C13.3571 0.253125 13.0839 0 12.75 0H11.5357C11.2018 0 10.9286 0.253125 10.9286 0.5625V2.25H6.07143V0.5625C6.07143 0.253125 5.79821 0 5.46429 0H4.25C3.91607 0 3.64286 0.253125 3.64286 0.5625V2.25H1.82143C0.815848 2.25 0 3.00586 0 3.9375V5.625H17V3.9375C17 3.00586 16.1842 2.25 15.1786 2.25Z" fill="#ED1C24"/>
</svg>
